<svg width="22" height="22" viewBox="0 0 22 22" fill="none" xmlns="http://www.w3.org/2000/svg">
<path d="M20.1683 15.51V18.26C20.1693 18.5153 20.117 18.768 20.0147 19.0019C19.9125 19.2358 19.7625 19.4458 19.5743 19.6184C19.3862 19.791 19.1641 19.9224 18.9223 20.0041C18.6805 20.0859 18.4242 20.1163 18.1699 20.0933C15.3492 19.7868 12.6397 18.823 10.2591 17.2792C8.04428 15.8718 6.1665 13.994 4.75911 11.7792C3.20992 9.38777 2.24583 6.66508 1.94494 3.83167C1.92203 3.57818 1.95216 3.3227 2.0334 3.08149C2.11464 2.84028 2.24521 2.61863 2.41681 2.43065C2.5884 2.24267 2.79726 2.09248 3.03008 1.98965C3.2629 1.88681 3.51459 1.83357 3.76911 1.83333H6.51911C6.96397 1.82895 7.39525 1.98649 7.73256 2.27657C8.06986 2.56665 8.29018 2.96949 8.35244 3.41C8.46851 4.29006 8.68377 5.15417 8.99411 5.98583C9.11744 6.31393 9.14413 6.6705 9.07102 7.01331C8.99791 7.35611 8.82807 7.67077 8.58161 7.92L7.41744 9.08417C8.72237 11.3791 10.6225 13.2792 12.9174 14.5842L14.0816 13.42C14.3308 13.1735 14.6455 13.0037 14.9883 12.9306C15.3311 12.8575 15.6877 12.8842 16.0158 13.0075C16.8474 13.3178 17.7115 13.5331 18.5916 13.6492C19.0369 13.712 19.4436 13.9363 19.7343 14.2794C20.025 14.6225 20.1794 15.0604 20.1683 15.51Z" stroke="#00AB49" stroke-width="1.5" stroke-linecap="round" stroke-linejoin="round"/>
</svg>
